<svg xmlns="http://www.w3.org/2000/svg" version="1.1" xmlns:xlink="http://www.w3.org/1999/xlink" xmlns:svgjs="http://svgjs.dev/svgjs" width="2000" height="631" viewBox="0 0 2000 631"><g transform="matrix(1,0,0,1,-1.2121212121212466,-1.9464865394747335)"><svg viewBox="0 0 396 125" data-background-color="#ffffff" preserveAspectRatio="xMidYMid meet" height="631" width="2000" xmlns="http://www.w3.org/2000/svg" xmlns:xlink="http://www.w3.org/1999/xlink"><g id="tight-bounds" transform="matrix(1,0,0,1,0.2400000000000091,0.38559559022874623)"><svg viewBox="0 0 395.52 124.22880881954251" height="124.22880881954251" width="395.52"><g><svg viewBox="0 0 395.52 124.22880881954251" height="124.22880881954251" width="395.52"><g transform="matrix(1,0,0,1,0,63.92044681262093)"><svg viewBox="0 0 395.52 60.30836200692157" height="60.30836200692157" width="395.52"><g id="textblocktransform"><svg viewBox="0 0 395.52 60.30836200692157" height="60.30836200692157" width="395.52" id="textblock"><g><svg viewBox="0 0 395.52 60.30836200692157" height="60.30836200692157" width="395.52"><g transform="matrix(1,0,0,1,0,0)"><svg width="395.52" viewBox="2.00577 -20.95022 316.23337 48.21884" height="60.30836200692157" data-palette-color="url(#2a7698bd-753e-44ad-b840-a1e9126625c7)"></svg></g></svg></g></svg></g></svg></g><g transform="matrix(1,0,0,1,180.2649522295609,0)"><svg viewBox="0 0 34.99009554087819 60.30836200692158" height="60.30836200692158" width="34.99009554087819"><g><svg xmlns="http://www.w3.org/2000/svg" xmlns:xlink="http://www.w3.org/1999/xlink" version="1.1" x="0" y="0" viewBox="21.679106830508616 1 56.85827385947762 98" enable-background="new 0 0 100 100" xml:space="preserve" height="60.30836200692158" width="34.99009554087819" class="icon-icon-0" data-fill-palette-color="accent" id="icon-0"></svg></g></svg></g><g></g></svg></g><defs></defs><mask id="9135827c-92c4-4f77-aa6d-0fdd6caa6109"><g id="SvgjsG4438"><svg viewBox="0 0 395.52 124.22880881954251" height="124.22880881954251" width="395.52"><g><svg viewBox="0 0 395.52 124.22880881954251" height="124.22880881954251" width="395.52"><g transform="matrix(1,0,0,1,0,63.92044681262093)"><svg viewBox="0 0 395.52 60.30836200692157" height="60.30836200692157" width="395.52"><g id="SvgjsG4437"><svg viewBox="0 0 395.52 60.30836200692157" height="60.30836200692157" width="395.52" id="SvgjsSvg4436"><g><svg viewBox="0 0 395.52 60.30836200692157" height="60.30836200692157" width="395.52"><g transform="matrix(1,0,0,1,0,0)"><svg width="395.52" viewBox="2.00577 -20.95022 316.23337 48.21884" height="60.30836200692157" data-palette-color="url(#2a7698bd-753e-44ad-b840-a1e9126625c7)"><path d="M6.336 13.971l-4.33-0.72 5.681-34.201 14.639 2.431c1.513 0.251 2.841 0.796 3.986 1.636 1.152 0.833 2.105 1.85 2.859 3.049 0.761 1.194 1.29 2.485 1.587 3.873 0.297 1.387 0.333 2.755 0.109 4.103v0c-0.261 1.572-0.805 3.016-1.632 4.331-0.833 1.315-1.868 2.379-3.105 3.195-1.244 0.814-2.618 1.295-4.122 1.444v0l6.1 14.475-4.913-0.816-5.763-13.578-9.056-1.504zM11.377-16.374l-2.36 14.206 10.358 1.72c1.19 0.198 2.281 0.041 3.272-0.47 0.991-0.511 1.826-1.271 2.507-2.28 0.681-1.009 1.126-2.138 1.333-3.387v0c0.214-1.289 0.121-2.518-0.28-3.686-0.4-1.175-1.013-2.159-1.841-2.952-0.82-0.799-1.793-1.291-2.917-1.478v0zM38.976 15.028l18.977 2.493-0.509 3.876-23.33-3.064 4.516-34.375 22.893 3.008-0.509 3.876-18.541-2.435-1.463 11.134 16.122 2.118-0.477 3.629-16.121-2.118zM60.262 21.641l17.371-33.199 3.694 0.344 10.876 35.837-4.67-0.436-3.138-10.497-14.487-1.353-4.977 9.74zM71.101 9.024l12.635 1.179-4.734-16.531zM120.92 26.381l-23.685-1.447 2.114-34.605 4.382 0.267-1.876 30.703 19.304 1.18zM160.544 27.269l-4.389-0.103 0.621-26.453-11.904 20.086-2.68-0.063-10.999-20.624-0.621 26.453-4.388-0.103 0.813-34.66 4.639 0.109 12.018 22.798 13.115-22.209 4.589 0.108zM191.193-4.305l-1.98 3.609c-0.402-0.446-0.931-0.875-1.586-1.289-0.661-0.407-1.402-0.776-2.222-1.106-0.82-0.324-1.712-0.583-2.676-0.778-0.964-0.188-1.966-0.271-3.005-0.251v0c-2.673 0.053-4.633 0.594-5.879 1.626-1.253 1.031-1.863 2.427-1.828 4.187v0c0.024 1.24 0.37 2.21 1.037 2.91 0.667 0.7 1.679 1.267 3.034 1.7 1.362 0.427 3.091 0.863 5.187 1.309v0c2.416 0.473 4.509 1.068 6.276 1.787 1.774 0.712 3.147 1.685 4.118 2.92 0.964 1.235 1.467 2.892 1.508 4.971v0c0.033 1.66-0.256 3.109-0.865 4.348-0.609 1.232-1.476 2.256-2.6 3.071-1.124 0.822-2.446 1.435-3.965 1.839-1.526 0.403-3.182 0.623-4.968 0.657v0c-1.76 0.035-3.48-0.118-5.16-0.458-1.687-0.34-3.287-0.856-4.801-1.546-1.507-0.684-2.921-1.55-4.242-2.598v0l2.027-3.75c0.531 0.543 1.215 1.073 2.052 1.59 0.844 0.524 1.797 1.002 2.858 1.434 1.069 0.439 2.226 0.783 3.471 1.032 1.239 0.256 2.508 0.371 3.808 0.345v0c2.473-0.049 4.387-0.536 5.742-1.463 1.349-0.92 2.006-2.243 1.973-3.969v0c-0.026-1.3-0.429-2.332-1.211-3.097-0.782-0.765-1.924-1.392-3.428-1.883-1.51-0.497-3.343-0.985-5.5-1.462v0c-2.358-0.54-4.34-1.145-5.947-1.814-1.607-0.662-2.821-1.555-3.643-2.679-0.822-1.124-1.251-2.599-1.287-4.425v0c-0.043-2.213 0.46-4.093 1.509-5.641 1.043-1.554 2.5-2.74 4.371-3.557 1.871-0.817 3.993-1.249 6.366-1.295v0c1.566-0.031 3.026 0.104 4.379 0.404 1.359 0.3 2.632 0.732 3.816 1.295 1.185 0.557 2.271 1.232 3.261 2.027zM213.475 25.771v0c-2.277 0.125-4.427-0.255-6.452-1.139-2.018-0.878-3.805-2.115-5.361-3.712-1.549-1.591-2.791-3.412-3.725-5.465-0.927-2.052-1.452-4.2-1.574-6.443v0c-0.128-2.343 0.156-4.585 0.853-6.727 0.704-2.135 1.734-4.058 3.089-5.767 1.356-1.703 2.99-3.071 4.903-4.105 1.92-1.033 4.034-1.613 6.345-1.739v0c3.342-0.183 6.142 0.365 8.402 1.643 2.253 1.279 3.994 3.009 5.222 5.192v0l-3.237 2.521c-1.122-1.962-2.585-3.38-4.39-4.257-1.811-0.882-3.772-1.266-5.881-1.15v0c-1.757 0.096-3.331 0.56-4.721 1.391-1.39 0.824-2.56 1.906-3.508 3.246-0.955 1.341-1.657 2.838-2.107 4.492-0.444 1.653-0.617 3.359-0.521 5.116v0c0.101 1.851 0.497 3.582 1.185 5.193 0.689 1.605 1.62 3.003 2.794 4.194 1.174 1.191 2.512 2.106 4.016 2.744 1.503 0.632 3.101 0.902 4.791 0.81v0c1.984-0.109 3.84-0.714 5.569-1.818 1.735-1.11 3.341-2.747 4.819-4.911v0l0.248 4.534c-2.919 3.872-6.506 5.925-10.759 6.157zM223.986 24.955l-0.763-13.939-7.459 0.409-0.182-3.315 11.163-0.612 0.945 17.254zM231.212 24.444l10.881-35.854 3.694-0.35 17.363 33.182-4.67 0.442-5.038-9.729-14.486 1.371-3.075 10.496zM239.511 10.028l12.634-1.195-7.731-15.36zM285.358-16.362l0.489 3.879-11.866 1.495 3.844 30.519-4.365 0.55-3.845-30.519-11.866 1.495-0.489-3.88zM298.724 12.662l18.908-2.972 0.607 3.862-23.244 3.654-5.385-34.249 22.81-3.586 0.608 3.863-18.474 2.904 1.744 11.093 16.063-2.525 0.569 3.616-16.063 2.525z" opacity="1" transform="matrix(1,0,0,1,0,0)" fill="white" class="wordmark-text-0" id="SvgjsPath4435"></path></svg></g></svg></g></svg></g></svg></g><g transform="matrix(1,0,0,1,180.2649522295609,0)"><svg viewBox="0 0 34.99009554087819 60.30836200692158" height="60.30836200692158" width="34.99009554087819"><g><svg xmlns="http://www.w3.org/2000/svg" xmlns:xlink="http://www.w3.org/1999/xlink" version="1.1" x="0" y="0" viewBox="21.679106830508616 1 56.85827385947762 98" enable-background="new 0 0 100 100" xml:space="preserve" height="60.30836200692158" width="34.99009554087819" class="icon-icon-0" data-fill-palette-color="accent" id="SvgjsSvg4434"><g fill="black"><path fill-rule="evenodd" clip-rule="evenodd" d="M30.545 28.822C29.38 36.039 30.875 43.672 37.045 47.863 30.758 19.81 45.756 8.664 59.646 1 43.466 24.046 76.542 24.644 78.423 51.13 80.028 73.71 64.507 91.317 46.639 99 46.845 76.175 24.089 73.067 21.801 54.397 20.905 47.094 25.062 33.766 30.545 28.822" fill="black"></path></g></svg></g></svg></g><g></g></svg></g><defs><mask></mask></defs></svg><rect width="395.52" height="124.22880881954251" fill="black" stroke="none" visibility="hidden"></rect></g></mask><linearGradient x1="0" x2="1" y1="0.578" y2="0.595" id="2a7698bd-753e-44ad-b840-a1e9126625c7"><stop stop-color="#6ee2f5" offset="0"></stop><stop stop-color="#6454f0" offset="1"></stop></linearGradient><rect width="395.52" height="124.22880881954251" fill="url(#2a7698bd-753e-44ad-b840-a1e9126625c7)" mask="url(#9135827c-92c4-4f77-aa6d-0fdd6caa6109)" data-fill-palette-color="primary"></rect><mask id="c9c773de-d9dd-4642-81ff-0a2745eabd74"><g id="SvgjsG4447"><svg viewBox="0 0 395.52 124.22880881954251" height="124.22880881954251" width="395.52"><g><svg viewBox="0 0 395.52 124.22880881954251" height="124.22880881954251" width="395.52"><g transform="matrix(1,0,0,1,0,63.92044681262093)"><svg viewBox="0 0 395.52 60.30836200692157" height="60.30836200692157" width="395.52"><g id="SvgjsG4446"><svg viewBox="0 0 395.52 60.30836200692157" height="60.30836200692157" width="395.52" id="SvgjsSvg4445"><g><svg viewBox="0 0 395.52 60.30836200692157" height="60.30836200692157" width="395.52"><g transform="matrix(1,0,0,1,0,0)"><svg width="395.52" viewBox="2.00577 -20.95022 316.23337 48.21884" height="60.30836200692157" data-palette-color="url(#2a7698bd-753e-44ad-b840-a1e9126625c7)"></svg></g></svg></g></svg></g></svg></g><g transform="matrix(1,0,0,1,180.2649522295609,0)"><svg viewBox="0 0 34.99009554087819 60.30836200692158" height="60.30836200692158" width="34.99009554087819"><g><svg xmlns="http://www.w3.org/2000/svg" xmlns:xlink="http://www.w3.org/1999/xlink" version="1.1" x="0" y="0" viewBox="21.679106830508616 1 56.85827385947762 98" enable-background="new 0 0 100 100" xml:space="preserve" height="60.30836200692158" width="34.99009554087819" class="icon-icon-0" data-fill-palette-color="accent" id="SvgjsSvg4444"><g fill="white"><path fill-rule="evenodd" clip-rule="evenodd" d="M30.545 28.822C29.38 36.039 30.875 43.672 37.045 47.863 30.758 19.81 45.756 8.664 59.646 1 43.466 24.046 76.542 24.644 78.423 51.13 80.028 73.71 64.507 91.317 46.639 99 46.845 76.175 24.089 73.067 21.801 54.397 20.905 47.094 25.062 33.766 30.545 28.822" fill="white"></path></g></svg></g></svg></g><g></g></svg></g><defs><mask></mask></defs><mask><g id="SvgjsG4443"><svg viewBox="0 0 395.52 124.22880881954251" height="124.22880881954251" width="395.52"><g><svg viewBox="0 0 395.52 124.22880881954251" height="124.22880881954251" width="395.52"><g transform="matrix(1,0,0,1,0,63.92044681262093)"><svg viewBox="0 0 395.52 60.30836200692157" height="60.30836200692157" width="395.52"><g id="SvgjsG4442"><svg viewBox="0 0 395.52 60.30836200692157" height="60.30836200692157" width="395.52" id="SvgjsSvg4441"><g><svg viewBox="0 0 395.52 60.30836200692157" height="60.30836200692157" width="395.52"><g transform="matrix(1,0,0,1,0,0)"><svg width="395.52" viewBox="2.00577 -20.95022 316.23337 48.21884" height="60.30836200692157" data-palette-color="url(#2a7698bd-753e-44ad-b840-a1e9126625c7)"><path d="M6.336 13.971l-4.33-0.72 5.681-34.201 14.639 2.431c1.513 0.251 2.841 0.796 3.986 1.636 1.152 0.833 2.105 1.85 2.859 3.049 0.761 1.194 1.29 2.485 1.587 3.873 0.297 1.387 0.333 2.755 0.109 4.103v0c-0.261 1.572-0.805 3.016-1.632 4.331-0.833 1.315-1.868 2.379-3.105 3.195-1.244 0.814-2.618 1.295-4.122 1.444v0l6.1 14.475-4.913-0.816-5.763-13.578-9.056-1.504zM11.377-16.374l-2.36 14.206 10.358 1.72c1.19 0.198 2.281 0.041 3.272-0.47 0.991-0.511 1.826-1.271 2.507-2.28 0.681-1.009 1.126-2.138 1.333-3.387v0c0.214-1.289 0.121-2.518-0.28-3.686-0.4-1.175-1.013-2.159-1.841-2.952-0.82-0.799-1.793-1.291-2.917-1.478v0zM38.976 15.028l18.977 2.493-0.509 3.876-23.33-3.064 4.516-34.375 22.893 3.008-0.509 3.876-18.541-2.435-1.463 11.134 16.122 2.118-0.477 3.629-16.121-2.118zM60.262 21.641l17.371-33.199 3.694 0.344 10.876 35.837-4.67-0.436-3.138-10.497-14.487-1.353-4.977 9.74zM71.101 9.024l12.635 1.179-4.734-16.531zM120.92 26.381l-23.685-1.447 2.114-34.605 4.382 0.267-1.876 30.703 19.304 1.18zM160.544 27.269l-4.389-0.103 0.621-26.453-11.904 20.086-2.68-0.063-10.999-20.624-0.621 26.453-4.388-0.103 0.813-34.66 4.639 0.109 12.018 22.798 13.115-22.209 4.589 0.108zM191.193-4.305l-1.98 3.609c-0.402-0.446-0.931-0.875-1.586-1.289-0.661-0.407-1.402-0.776-2.222-1.106-0.82-0.324-1.712-0.583-2.676-0.778-0.964-0.188-1.966-0.271-3.005-0.251v0c-2.673 0.053-4.633 0.594-5.879 1.626-1.253 1.031-1.863 2.427-1.828 4.187v0c0.024 1.24 0.37 2.21 1.037 2.91 0.667 0.7 1.679 1.267 3.034 1.7 1.362 0.427 3.091 0.863 5.187 1.309v0c2.416 0.473 4.509 1.068 6.276 1.787 1.774 0.712 3.147 1.685 4.118 2.92 0.964 1.235 1.467 2.892 1.508 4.971v0c0.033 1.66-0.256 3.109-0.865 4.348-0.609 1.232-1.476 2.256-2.6 3.071-1.124 0.822-2.446 1.435-3.965 1.839-1.526 0.403-3.182 0.623-4.968 0.657v0c-1.76 0.035-3.48-0.118-5.16-0.458-1.687-0.34-3.287-0.856-4.801-1.546-1.507-0.684-2.921-1.55-4.242-2.598v0l2.027-3.75c0.531 0.543 1.215 1.073 2.052 1.59 0.844 0.524 1.797 1.002 2.858 1.434 1.069 0.439 2.226 0.783 3.471 1.032 1.239 0.256 2.508 0.371 3.808 0.345v0c2.473-0.049 4.387-0.536 5.742-1.463 1.349-0.92 2.006-2.243 1.973-3.969v0c-0.026-1.3-0.429-2.332-1.211-3.097-0.782-0.765-1.924-1.392-3.428-1.883-1.51-0.497-3.343-0.985-5.5-1.462v0c-2.358-0.54-4.34-1.145-5.947-1.814-1.607-0.662-2.821-1.555-3.643-2.679-0.822-1.124-1.251-2.599-1.287-4.425v0c-0.043-2.213 0.46-4.093 1.509-5.641 1.043-1.554 2.5-2.74 4.371-3.557 1.871-0.817 3.993-1.249 6.366-1.295v0c1.566-0.031 3.026 0.104 4.379 0.404 1.359 0.3 2.632 0.732 3.816 1.295 1.185 0.557 2.271 1.232 3.261 2.027zM213.475 25.771v0c-2.277 0.125-4.427-0.255-6.452-1.139-2.018-0.878-3.805-2.115-5.361-3.712-1.549-1.591-2.791-3.412-3.725-5.465-0.927-2.052-1.452-4.2-1.574-6.443v0c-0.128-2.343 0.156-4.585 0.853-6.727 0.704-2.135 1.734-4.058 3.089-5.767 1.356-1.703 2.99-3.071 4.903-4.105 1.92-1.033 4.034-1.613 6.345-1.739v0c3.342-0.183 6.142 0.365 8.402 1.643 2.253 1.279 3.994 3.009 5.222 5.192v0l-3.237 2.521c-1.122-1.962-2.585-3.38-4.39-4.257-1.811-0.882-3.772-1.266-5.881-1.15v0c-1.757 0.096-3.331 0.56-4.721 1.391-1.39 0.824-2.56 1.906-3.508 3.246-0.955 1.341-1.657 2.838-2.107 4.492-0.444 1.653-0.617 3.359-0.521 5.116v0c0.101 1.851 0.497 3.582 1.185 5.193 0.689 1.605 1.62 3.003 2.794 4.194 1.174 1.191 2.512 2.106 4.016 2.744 1.503 0.632 3.101 0.902 4.791 0.81v0c1.984-0.109 3.84-0.714 5.569-1.818 1.735-1.11 3.341-2.747 4.819-4.911v0l0.248 4.534c-2.919 3.872-6.506 5.925-10.759 6.157zM223.986 24.955l-0.763-13.939-7.459 0.409-0.182-3.315 11.163-0.612 0.945 17.254zM231.212 24.444l10.881-35.854 3.694-0.35 17.363 33.182-4.67 0.442-5.038-9.729-14.486 1.371-3.075 10.496zM239.511 10.028l12.634-1.195-7.731-15.36zM285.358-16.362l0.489 3.879-11.866 1.495 3.844 30.519-4.365 0.55-3.845-30.519-11.866 1.495-0.489-3.88zM298.724 12.662l18.908-2.972 0.607 3.862-23.244 3.654-5.385-34.249 22.81-3.586 0.608 3.863-18.474 2.904 1.744 11.093 16.063-2.525 0.569 3.616-16.063 2.525z" opacity="1" transform="matrix(1,0,0,1,0,0)" fill="black" class="wordmark-text-0" id="SvgjsPath4440"></path></svg></g></svg></g></svg></g></svg></g><g transform="matrix(1,0,0,1,180.2649522295609,0)"><svg viewBox="0 0 34.99009554087819 60.30836200692158" height="60.30836200692158" width="34.99009554087819"><g><svg xmlns="http://www.w3.org/2000/svg" xmlns:xlink="http://www.w3.org/1999/xlink" version="1.1" x="0" y="0" viewBox="21.679106830508616 1 56.85827385947762 98" enable-background="new 0 0 100 100" xml:space="preserve" height="60.30836200692158" width="34.99009554087819" class="icon-icon-0" data-fill-palette-color="accent" id="SvgjsSvg4439"><g fill="black"><path fill-rule="evenodd" clip-rule="evenodd" d="M30.545 28.822C29.38 36.039 30.875 43.672 37.045 47.863 30.758 19.81 45.756 8.664 59.646 1 43.466 24.046 76.542 24.644 78.423 51.13 80.028 73.71 64.507 91.317 46.639 99 46.845 76.175 24.089 73.067 21.801 54.397 20.905 47.094 25.062 33.766 30.545 28.822" fill="black"></path></g></svg></g></svg></g><g></g></svg></g><defs><mask></mask></defs></svg><rect width="395.52" height="124.22880881954251" fill="black" stroke="none" visibility="hidden"></rect></g></mask></svg><rect width="395.52" height="124.22880881954251" fill="black" stroke="none" visibility="hidden"></rect></g></mask><linearGradient x1="0" x2="1" y1="0.578" y2="0.595" id="7a077458-2954-4d8b-aed3-a536806fb5c8"><stop stop-color="#6ee2f5" offset="0"></stop><stop stop-color="#6454f0" offset="1"></stop></linearGradient><rect width="395.52" height="124.22880881954251" fill="url(#7a077458-2954-4d8b-aed3-a536806fb5c8)" mask="url(#c9c773de-d9dd-4642-81ff-0a2745eabd74)" data-fill-palette-color="accent"></rect></svg><rect width="395.52" height="124.22880881954251" fill="none" stroke="none" visibility="hidden"></rect></g></svg></g></svg>